<?xml version="1.0" standalone="no"?> <!DOCTYPE svg PUBLIC "-//W3C//DTD SVG 1.0//EN" "http://www.w3.org/TR/2001/REC-SVG-20010904/DTD/svg10.dtd" > <svg xmlns="http://www.w3.org/2000/svg" width="100%" height="100%">
<defs >
<font id="archer-xlight-pro" horiz-adv-x="398" ><font-face
    font-family="Archer Extra Light"
    units-per-em="1000"
    panose-1="0 0 0 0 0 0 0 0 0 0"
    ascent="800"
    descent="-200"
    alphabetic="0" />
<missing-glyph horiz-adv-x="506" d="M3 -200V800H503V-200H3ZM74 750L253 360L432 750H74ZM53 -76L225 300L53 676V-76ZM453 676L281 300L453 -76V676ZM253 240L74 -150H432L253 240Z" />
<glyph unicode=" " glyph-name="space" horiz-adv-x="217" />
<glyph unicode="!" glyph-name="exclam" horiz-adv-x="211" d="M98 160L89 658H122L113 160H98ZM106 -8Q93 -8 85 0T76 22T84 43T106 52Q118 52 126 44T135 22T127 1T106 -8Z" />
<glyph unicode="&quot;" glyph-name="quotedbl" horiz-adv-x="238" d="M170 491L156 632Q153 667 175 667Q199 667 194 632L181 491H170ZM57 491L43 632Q40 667 62 667Q86 667 81 632L68 491H57Z" />
<glyph unicode="#" glyph-name="numbersign" horiz-adv-x="483" d="M52 340V361H157L178 497H200L179 361H336L358 497H380L359 361H461V340H356L329 166H430V145H325L303 0H281L303 145H146L124 0H101L123 145H21V166H127L154 340H52ZM176 340L149 166H307L333 340H176Z" />
<glyph unicode="$" glyph-name="dollar" horiz-adv-x="429" d="M252 568L246 494Q300 488 334 464T369 410Q369 383 346 383Q337 383 331 389T324 406Q324 423 338 431Q314 466 245 474L229 262Q266 250 288 241T334 215T369 178T381 127Q381 69 335 35T211 0H209L201
-104L181 -102L189 1Q128 5 87 33T45 96Q45 126 68 126Q79 126 85 119T92 101Q92 83 75 76Q85 56 115 40T190 20L208 247Q136 271 100 297T64 375T108 460T220 495H226L232 570L252 568ZM212 19Q282 19 320 49T358 127Q358 171 325 195T227 241L210 19H212ZM86
375Q86 334 117 312T209 269L225 476H218Q159 476 123 448T86 375Z" />
<glyph unicode="%" glyph-name="percent" horiz-adv-x="593" d="M208 280T163 280T88 312T57 391Q57 438 87 470T163 503T238 471T269 391Q269 345 239 313ZM127 299T163 299T221 326T244 391Q244 430 222 457T163 484T104 457T81 391T104 326ZM108 -17L90 -5L283
246L475 499L493 486L300 235L108 -17ZM385 218T430 218T505 185T536 106T506 27T430 -6T355 27T324 106T354 185ZM466 198T430 198T372 172T349 106T371 41T430 14T488 40T511 106T489 171Z" />
<glyph unicode="&amp;" glyph-name="ampersand" horiz-adv-x="578" d="M556 283H496Q468 193 421 123L544 5L530 -12L408 106Q322 -6 204 -6Q128 -6 82 35T36 141Q36 246 181 329Q108 410 108 477Q108 535 145 574T238 613Q290 613 324 581T359 494Q359 443 322
403T215 324Q239 299 280 261L407 137Q451 201 475 283H410V303H556V283ZM204 14Q313 14 394 119L265 244Q225 281 195 314Q61 236 61 140Q61 86 99 50T204 14ZM133 476Q133 413 201 339Q268 377 300 412T333 494Q333 539 307 565T238 592Q192 592 163 560T133
476Z" />
<glyph unicode="&apos;" glyph-name="quotesingle" horiz-adv-x="126" d="M57 491L43 632Q40 667 62 667Q86 667 81 632L68 491H57Z" />
<glyph unicode="(" glyph-name="parenleft" horiz-adv-x="312" d="M311 -225Q192 -136 131 -4T69 260T130 524T311 745L326 727Q208 638 152 513T95 260T151 7T326 -207L311 -225Z" />
<glyph unicode=")" glyph-name="parenright" horiz-adv-x="312" d="M0 -225L-14 -207Q103 -118 160 7T217 260Q217 387 160 512T-14 727L0 745Q119 656 180 524T242 260T181 -4T0 -225Z" />
<glyph unicode="*" glyph-name="asterisk" horiz-adv-x="350" d="M276 583L182 563L248 494Q269 473 256 460Q238 442 222 475L175 557L128 475Q115 445 96 458Q79 471 102 494L168 563L74 583Q40 589 48 609Q54 626 83 613L170 571L159 668Q154 700 175 700Q197
700 190 668L179 571L267 613Q277 619 288 619T302 609Q308 588 276 583Z" />
<glyph unicode="+" glyph-name="plus" horiz-adv-x="386" d="M181 113V251H47V273H181V411H204V273H339V251H204V113H181Z" />
<glyph unicode="," glyph-name="comma" horiz-adv-x="151" d="M30 -112L24 -102Q77 -55 80 -4Q65 -3 56 5T47 25Q47 36 54 44T73 52Q87 52 96 41T105 12Q105 -26 84 -59T30 -112Z" />
<glyph unicode="-" glyph-name="hyphen" horiz-adv-x="250" d="M37 258V282H213V258H37Z" />
<glyph unicode="." glyph-name="period" horiz-adv-x="151" d="M76 -8Q63 -8 55 0T46 22T54 43T76 52Q88 52 96 44T105 22T97 1T76 -8Z" />
<glyph unicode="/" glyph-name="slash" horiz-adv-x="417" d="M-15 -202L-36 -192L374 734L395 724L-15 -202Z" />
<glyph unicode="0" glyph-name="zero" horiz-adv-x="510" d="M347 -8T255 -8T104 65T45 249Q45 359 104 432T255 505T406 432T465 249T406 66ZM173 13T255 13T388 80T439 249Q439 350 388 417T255 484Q173 484 122 418T71 249T122 80Z" />
<glyph unicode="1" glyph-name="one" horiz-adv-x="361" d="M61 0V21H180V474L67 441L63 461L196 501H205V21H323V0H61Z" />
<glyph unicode="2" glyph-name="two" horiz-adv-x="448" d="M211 485Q172 485 140 469T92 424Q84 412 83 400Q107 395 107 373Q107 363 100 357T83 350Q57 350 57 382Q57 408 72 433Q91 465 128 485T212 505Q284 505 325 468T367 373Q367 320 335 281T237 197Q112
114 71 21H360V119H382V0H43L40 7Q66 75 112 122T223 214Q287 258 314 291T342 373Q342 423 308 454T211 485Z" />
<glyph unicode="3" glyph-name="three" horiz-adv-x="455" d="M41 -9Q41 25 68 25Q78 25 84 19T91 2Q91 -18 67 -24Q70 -38 80 -51Q119 -104 217 -104Q289 -104 332 -62T375 43Q375 132 289 169Q244 191 175 191H160V212H176Q244 212 293 241Q364 283 364 359Q364
412 325 448T219 484Q135 484 97 430Q88 417 84 400Q108 395 108 373Q108 363 101 357T85 350Q73 350 66 359T58 383Q58 410 75 435Q96 466 134 485T219 505Q297 505 343 463T390 359Q390 266 300 223Q270 209 237 203Q266 200 299 187Q346 168 373 132T401 44Q401
-30 349 -77T216 -125Q164 -125 122 -107T58 -58Q41 -35 41 -9Z" />
<glyph unicode="4" glyph-name="four" horiz-adv-x="459" d="M305 -120V75H18L15 82L321 504L339 490L52 96H305V290L327 299V96H446V75H327V-120H305Z" />
<glyph unicode="5" glyph-name="five" horiz-adv-x="439" d="M41 -20Q41 -8 48 1T66 10Q89 10 89 -12Q89 -32 68 -38Q74 -50 81 -58Q124 -104 210 -104Q281 -104 327 -57T374 66Q374 141 328 183T200 225Q134 225 74 197L64 205L96 497H365V474H117L89 224Q141
247 200 247Q289 247 344 199T400 66Q400 -17 345 -71T210 -125Q119 -125 68 -74Q41 -47 41 -20Z" />
<glyph unicode="6" glyph-name="six" horiz-adv-x="486" d="M282 609Q199 609 139 519T77 252V244Q91 300 140 339T254 378Q336 378 389 324T442 188Q442 107 388 50T255 -8Q173 -8 116 47Q54 109 54 252Q54 436 121 532T283 629Q352 629 391 588Q414 563 414
539Q414 505 388 505Q366 505 366 527Q366 547 386 557Q381 567 375 574Q346 609 282 609ZM255 13Q324 13 370 63T417 188T372 309T254 357T132 306T83 187Q83 113 131 63T255 13Z" />
<glyph unicode="7" glyph-name="seven" horiz-adv-x="411" d="M128 -121L107 -112L354 477H64V361H42V497H378L383 487L128 -121Z" />
<glyph unicode="8" glyph-name="eight" horiz-adv-x="468" d="M234 -8Q154 -8 100 40T46 162Q46 219 83 262T182 321Q127 336 93 375T59 467Q59 536 109 582T234 629T358 583T408 467Q408 416 374 377T286 321Q346 307 383 263T421 162Q421 90 367 41T234 -8ZM170
330T234 330T340 369T383 469Q383 527 341 568T234 609T128 569T85 469Q85 408 127 369ZM164 12T234 12T350 55T396 163Q396 226 349 268T234 311Q165 311 119 269T72 163Q72 98 118 55Z" />
<glyph unicode="9" glyph-name="nine" horiz-adv-x="486" d="M202 -125Q129 -125 91 -85Q68 -61 68 -36Q68 -1 94 -1Q104 -1 110 -7T117 -23Q117 -42 97 -53Q100 -63 109 -72Q140 -105 203 -105Q291 -105 352 -17T411 243V252Q407 239 400 223Q377 176 333 147T234
118Q152 118 99 171T46 307Q46 387 101 445T234 503Q319 503 372 448Q434 385 434 243Q434 58 367 -33T202 -125ZM354 435Q308 483 234 483Q165 483 118 432T71 307Q71 232 116 186T234 139T356 189T406 308Q406 385 354 435Z" />
<glyph unicode=":" glyph-name="colon" horiz-adv-x="169" d="M85 283Q72 283 64 291T55 313T63 334T85 343Q97 343 105 335T114 313T106 292T85 283ZM85 -8Q72 -8 64 0T55 22T63 43T85 52Q97 52 105 44T114 22T106 1T85 -8Z" />
<glyph unicode=";" glyph-name="semicolon" horiz-adv-x="169" d="M85 283Q72 283 64 291T55 313T63 334T85 343Q97 343 105 335T114 313T106 292T85 283ZM35 -114L28 -103Q83 -56 87 -6Q53 -6 53 25Q53 36 61 44T81 53Q96 53 105 41T115 9Q115 -23 92 -58T35 -114Z" />
<glyph unicode="&lt;" glyph-name="less" horiz-adv-x="366" d="M282 95L51 247V255L282 407L295 389L84 251L295 113L282 95Z" />
<glyph unicode="=" glyph-name="equal" horiz-adv-x="386" d="M47 308V330H339V308H47ZM47 172V194H339V172H47Z" />
<glyph unicode="&gt;" glyph-name="greater" horiz-adv-x="366" d="M84 95L71 113L281 251L71 389L84 407L315 255V247L84 95Z" />
<glyph unicode="?" glyph-name="question" horiz-adv-x="404" d="M23 524Q23 561 45 592Q67 626 107 646T199 666Q277 666 327 617T378 495Q378 428 331 377T196 306L192 160H177L172 320Q260 338 306 385T353 495Q353 561 310 603T199 645Q153 645 117 627T61
577Q53 565 48 544Q80 541 80 513Q80 503 72 495T53 487Q41 487 32 497T23 524ZM187 -5Q177 -6 169 1T158 19Q157 31 164 39T182 49T201 43T211 25Q212 13 205 5T187 -5Z" />
<glyph unicode="@" glyph-name="at" horiz-adv-x="774" d="M314 -172Q193 -172 120 -92T46 119T103 360T256 535T462 600Q587 600 659 525T731 325Q731 212 680 127T562 41Q518 41 499 65T485 130Q470 94 432 66T349 37Q293 37 260 72T227 174Q227 262 280 323T406
385Q455 385 483 355T517 276L544 383H567L511 160Q497 114 510 87T562 60Q622 60 667 141T712 325Q712 442 646 512T462 582Q299 582 183 446T66 119Q66 -3 132 -78T314 -154Q409 -154 485 -112L494 -128Q414 -172 314 -172ZM352 56Q420 56 462 118T504 255Q504
306 477 336T406 366Q342 366 297 310T251 174Q251 119 277 88T352 56Z" />
<glyph unicode="A" glyph-name="A" horiz-adv-x="695" d="M14 0V22H92L321 636H231V658H464V636H375L603 22H682V0H481V22H575L491 251H204L119 22H215V0H14ZM212 273H483L348 639L212 273Z" />
<glyph unicode="B" glyph-name="B" horiz-adv-x="581" d="M44 0V22H139V636H44V658H304Q404 658 456 611T508 494Q508 434 469 391T367 337Q442 327 484 285T527 178Q527 96 466 48T306 0H44ZM165 22H307Q394 22 447 64T501 178Q501 246 451 285T302 325H165V22ZM165
348H304Q394 348 438 389T482 494Q482 555 437 595T302 636H165V348Z" />
<glyph unicode="C" glyph-name="C" horiz-adv-x="696" d="M383 -10Q239 -10 148 87T57 324Q57 468 149 568T380 668Q481 668 551 617T622 501Q622 483 613 473T590 463Q579 463 571 471T562 491T570 512T593 523Q585 567 525 606T380 646Q252 646 168 553T84 325Q84
192 167 102T383 12Q512 12 606 106L620 89Q518 -10 383 -10Z" />
<glyph unicode="D" glyph-name="D" horiz-adv-x="706" d="M44 0V22H139V636H44V658H287Q458 658 552 569T647 331Q647 181 553 91T290 0H44ZM165 22H292Q450 22 535 105T621 331Q621 470 535 553T287 636H165V22Z" />
<glyph unicode="E" glyph-name="E" horiz-adv-x="568" d="M44 0V22H139V636H44V658H498V514H473V636H165V348H407V325H165V22H473V144H498V0H44Z" />
<glyph unicode="F" glyph-name="F" horiz-adv-x="541" d="M44 0V22H139V636H44V658H488V514H463V636H165V338H402V316H165V22H266V0H44Z" />
<glyph unicode="G" glyph-name="G" horiz-adv-x="724" d="M376 -10Q244 -10 152 81T59 321Q59 475 156 571T390 668Q492 668 562 620T633 520Q633 505 625 496T604 487Q578 487 578 514Q578 536 599 546Q583 585 525 615T389 645Q254 645 170 551T85 321Q85 184
168 98T377 12Q505 12 616 101V273H404V295H641V0H616V75Q506 -10 376 -10Z" />
<glyph unicode="H" glyph-name="H" horiz-adv-x="753" d="M44 0V22H139V636H44V658H262V636H165V350H588V636H491V658H709V636H614V22H709V0H491V22H588V327H165V22H262V0H44Z" />
<glyph unicode="I" glyph-name="I" horiz-adv-x="315" d="M45 0V22H144V636H45V658H271V636H171V22H271V0H45Z" />
<glyph unicode="J" glyph-name="J" horiz-adv-x="499" d="M200 -10Q131 -10 82 35T32 150Q32 198 65 198Q76 198 84 190T92 170Q92 157 83 149T56 140Q58 87 99 50T200 12Q262 12 299 51Q352 104 352 216V636H241V658H467V636H378V215Q378 95 318 37Q273 -10 200 -10Z" />
<glyph unicode="K" glyph-name="K" horiz-adv-x="649" d="M44 0V22H139V636H44V658H262V636H165V261L525 636H418V658H635V636H554L304 377L553 22H641V0H537L287 359L165 232V22H262V0H44Z" />
<glyph unicode="L" glyph-name="L" horiz-adv-x="520" d="M44 0V22H139V636H44V658H262V636H165V22H448V149H473V0H44Z" />
<glyph unicode="M" glyph-name="M" horiz-adv-x="837" d="M32 0V22H133L155 636H58V658H186L420 135L654 658H779V636H682L704 22H805V0H592V22H680L659 613L424 90H414L179 615L157 22H245V0H32Z" />
<glyph unicode="N" glyph-name="N" horiz-adv-x="745" d="M603 -3L163 612V22H262V0H44V22H139V636H44V658H160L596 48V636H499V658H716V636H621V-3H603Z" />
<glyph unicode="O" glyph-name="O" horiz-adv-x="768" d="M523 -10T384 -10T151 88T57 329Q57 471 151 569T384 668T617 570T711 329Q711 187 617 89ZM255 12T384 12T598 103T684 329T599 554T384 646T170 555T84 329T169 104Z" />
<glyph unicode="P" glyph-name="P" horiz-adv-x="554" d="M44 0V22H139V636H44V658H283Q385 658 450 603T515 460Q515 367 453 313T284 259Q211 259 165 261V22H262V0H44ZM284 281Q383 281 436 329T489 459Q489 536 433 586T284 636H165V283Q215 281 284 281Z" />
<glyph unicode="Q" glyph-name="Q" horiz-adv-x="768" d="M673 -139Q631 -139 598 -124T501 -66Q438 -23 352 -8Q240 11 167 75Q57 172 57 329Q57 471 151 569T384 668T617 570T711 329Q711 194 629 100T420 -5Q468 -17 533 -60Q582 -94 609 -105T673 -117Q707
-117 744 -95L755 -114Q712 -139 673 -139ZM386 12Q514 12 599 103T684 329T599 554T384 646T170 555T84 329Q84 177 183 89Q272 12 386 12Z" />
<glyph unicode="R" glyph-name="R" horiz-adv-x="592" d="M44 0V22H139V636H44V658H289Q388 658 448 607T508 476Q508 404 463 357T340 296L513 22H593V0H496L314 293Q292 291 276 291Q196 291 165 292V22H262V0H44ZM277 313Q371 313 426 355T481 476Q481 548
429 592T287 636H165V314Q199 313 277 313Z" />
<glyph unicode="S" glyph-name="S" horiz-adv-x="513" d="M255 -9Q170 -9 114 31T58 119Q58 136 66 145T86 155Q96 155 104 147T112 128Q112 105 89 97Q103 63 148 38T257 13Q336 13 383 54T431 162Q431 195 418 220T377 266T325 298T260 327Q219 343 194 356T139
390T96 440T82 505Q82 575 135 621T267 667Q339 667 392 630T445 547Q445 532 437 523T418 514Q408 514 400 521T392 540Q392 560 412 571Q400 602 358 623T266 645Q197 645 152 606T106 507Q106 474 119 450T161 405T212 375T277 347Q316 331 343 317T398 282T441
230T456 164Q456 87 400 39T255 -9Z" />
<glyph unicode="T" glyph-name="T" horiz-adv-x="616" d="M193 0V22H295V636H68V509H43V658H573V509H548V636H321V22H423V0H193Z" />
<glyph unicode="U" glyph-name="U" horiz-adv-x="685" d="M342 -10Q237 -10 181 51T124 227V636H29V658H247V636H150V229Q150 123 199 68T343 12Q536 12 536 229V636H438V658H656V636H561V227Q561 113 505 52T342 -10Z" />
<glyph unicode="V" glyph-name="V" horiz-adv-x="671" d="M326 -13L86 636H6V658H207V636H113L336 24L560 636H464V658H665V636H585L344 -13H326Z" />
<glyph unicode="W" glyph-name="W" horiz-adv-x="951" d="M285 -14L93 636H6V658H215V636H120L295 27L468 563H484L658 27L833 636H735V658H945V636H858L666 -14H649L475 517L302 -14H285Z" />
<glyph unicode="X" glyph-name="X" horiz-adv-x="697" d="M35 0V22H109L334 337L121 636H48V658H231V636H150L348 352L547 636H465V658H648V636H574L362 339L588 22H661V0H478V22H559L348 323L136 22H218V0H35Z" />
<glyph unicode="Y" glyph-name="Y" horiz-adv-x="628" d="M195 0V22H301V280L91 636H13V658H213V636H121L315 300L508 636H416V658H615V636H536L327 280V22H432V0H195Z" />
<glyph unicode="Z" glyph-name="Z" horiz-adv-x="569" d="M40 0V12L481 636H88V514H63V658H517V646L76 22H502V144H527V0H40Z" />
<glyph unicode="[" glyph-name="bracketleft" horiz-adv-x="313" d="M107 -200V732H297V710H132V-178H297V-200H107Z" />
<glyph unicode="\" glyph-name="backslash" horiz-adv-x="417" d="M431 -202L21 724L43 734L453 -192L431 -202Z" />
<glyph unicode="]" glyph-name="bracketright" horiz-adv-x="313" d="M15 -200V-178H180V710H15V732H206V-200H15Z" />
<glyph unicode="^" glyph-name="asciicircum" horiz-adv-x="409" d="M87 392L78 402L205 521L331 402L322 392L205 480L87 392Z" />
<glyph unicode="_" glyph-name="underscore" horiz-adv-x="497" d="M-2 -126V-102H499V-126H-2Z" />
<glyph unicode="`" glyph-name="grave" horiz-adv-x="506" d="M289 497L153 559Q130 570 130 583Q130 591 135 597T148 603Q157 603 173 592L296 508L289 497Z" />
<glyph unicode="a" glyph-name="a" horiz-adv-x="459" d="M181 -6Q116 -6 80 27T43 111Q43 166 85 200T195 234Q268 234 332 210V290Q332 334 310 360Q279 399 210 399Q136 399 104 359Q116 350 116 332Q116 323 110 316T93 309Q69 309 69 336Q69 365 108 391T211
418Q293 418 329 374Q356 342 356 292V20H430V0H333V68Q267 -6 181 -6ZM180 14Q265 14 332 90V192Q266 214 196 214Q134 214 101 184T67 112Q67 72 95 43T180 14Z" />
<glyph unicode="b" glyph-name="b" horiz-adv-x="519" d="M270 -6Q179 -6 110 58L97 0H85V708H10V728H109V339Q177 418 275 418Q362 418 418 358T474 206Q474 115 416 55T270 -6ZM270 14Q348 14 398 68T449 206T401 343T274 398Q176 398 109 315V83Q178 14 270 14Z" />
<glyph unicode="c" glyph-name="c" horiz-adv-x="448" d="M257 -6Q165 -6 105 50T44 201Q44 294 103 356T246 418Q311 418 356 383T401 305Q401 291 394 282T373 272Q364 272 358 278T351 295Q351 318 375 325Q366 355 330 376T247 398Q173 398 121 342T68 201Q68
117 122 66T258 14Q331 14 392 56L391 33Q333 -6 257 -6Z" />
<glyph unicode="d" glyph-name="d" horiz-adv-x="534" d="M243 -6Q158 -6 102 54T45 206Q45 297 103 357T248 418Q338 418 408 353V708H321V728H432V20H507V0H409V73Q339 -6 243 -6ZM244 14Q339 14 408 97V330Q334 398 248 398Q171 398 120 343T69 206Q69 122
118 68T244 14Z" />
<glyph unicode="e" glyph-name="e" horiz-adv-x="464" d="M418 209H69Q69 116 119 65T254 14Q334 14 399 62L397 38Q334 -6 252 -6Q160 -6 103 51T45 209Q45 298 101 358T237 418Q321 418 370 362T420 225Q420 217 418 209ZM236 398Q170 398 123 350T69 229H396Q394
301 352 349T236 398Z" />
<glyph unicode="f" glyph-name="f" horiz-adv-x="275" d="M250 681Q224 681 222 717H216Q188 717 167 693Q139 660 139 589V412H251V392H139V20H223V0H41V20H115V392H36V412H115V587Q115 671 153 709Q183 738 224 738Q247 738 260 729T274 704Q274 695 267 688T250 681Z" />
<glyph unicode="g" glyph-name="g" horiz-adv-x="535" d="M430 392V-31Q430 -104 395 -143Q347 -200 247 -200Q148 -200 107 -151Q92 -134 92 -116Q92 -103 99 -95T118 -87Q128 -87 135 -94T143 -112Q143 -130 125 -137Q138 -155 170 -167T248 -180Q335 -180 377
-129Q406 -94 406 -32V77Q337 -1 245 -1Q159 -1 104 58T48 208Q48 297 106 357T250 418Q335 418 407 352V412H505V392H430ZM250 398Q172 398 122 344T72 208T120 72T246 18Q337 18 406 101V328Q336 398 250 398Z" />
<glyph unicode="h" glyph-name="h" horiz-adv-x="520" d="M102 708H27V728H126V328Q202 418 292 418Q361 418 393 370Q416 338 416 275V20H491V0H318V20H392V273Q392 330 372 360Q346 397 289 397Q206 397 126 302V20H200V0H27V20H102V708Z" />
<glyph unicode="i" glyph-name="i" horiz-adv-x="249" d="M133 564T122 564T104 572T96 591T103 610T122 618T140 610T148 591T141 572ZM37 0V20H118V392H37V412H142V20H223V0H37Z" />
<glyph unicode="j" glyph-name="j" horiz-adv-x="214" d="M-42 -150Q-42 -140 -36 -132T-19 -124Q3 -124 3 -146Q3 -162 -7 -169Q2 -180 24 -180Q81 -180 99 -111Q110 -77 110 -14V392H20V412H134V-12Q134 -78 122 -119Q97 -200 24 -200Q-5 -200 -23 -186T-42
-150ZM124 564T113 564T95 572T87 591T94 610T113 618T131 610T139 591T132 572Z" />
<glyph unicode="k" glyph-name="k" horiz-adv-x="489" d="M27 0V20H102V708H27V728H126V173L360 392H256V412H466V392H390L237 248L396 20H466V0H380L220 234L126 145V20H200V0H27Z" />
<glyph unicode="l" glyph-name="l" horiz-adv-x="239" d="M27 0V20H107V708H27V728H131V20H212V0H27Z" />
<glyph unicode="m" glyph-name="m" horiz-adv-x="804" d="M38 0V20H113V392H38V412H136V328Q214 418 298 418Q371 418 400 364Q410 343 413 325Q492 418 580 418Q656 418 685 357Q700 327 700 275V20H775V0H602V20H676V273Q676 319 664 346Q641 397 577 397Q496
397 418 303V20H493V0H320V20H394V273Q394 320 382 345Q360 397 296 397Q217 397 137 304V20H211V0H38Z" />
<glyph unicode="n" glyph-name="n" horiz-adv-x="531" d="M136 412V327Q213 418 303 418Q378 418 409 363Q427 333 427 275V20H502V0H329V20H403V273Q403 319 390 348Q366 397 300 397Q216 397 137 302V20H211V0H38V20H113V392H38V412H136Z" />
<glyph unicode="o" glyph-name="o" horiz-adv-x="504" d="M252 -6Q162 -6 104 54T45 206Q45 296 104 357T252 418Q342 418 400 358T459 206Q459 116 400 55T252 -6ZM173 14T252 14T382 69T434 206T383 343T252 398T121 343T69 206T121 69Z" />
<glyph unicode="p" glyph-name="p" horiz-adv-x="529" d="M30 -196V-176H105V392H30V412H128V339Q198 418 290 418Q375 418 429 358T484 206Q484 115 427 55T285 -6Q198 -6 129 58V-176H203V-196H30ZM285 14Q361 14 410 68T460 206Q460 290 413 344T289 398Q198
398 129 315V82Q201 14 285 14Z" />
<glyph unicode="q" glyph-name="q" horiz-adv-x="519" d="M336 -196V-176H410V72Q339 -6 244 -6Q157 -6 101 54T45 206Q45 297 103 357T249 418Q340 418 409 354L422 412H434V-176H509V-196H336ZM245 14Q341 14 410 97V328Q338 398 249 398Q171 398 120 344T69
206Q69 122 117 68T245 14Z" />
<glyph unicode="r" glyph-name="r" horiz-adv-x="327" d="M261 418Q280 418 291 409T302 386Q302 376 296 369T277 362Q267 362 260 369T252 391V395Q195 391 137 294V20H219V0H38V20H113V392H38V412H136V321Q161 363 194 390T261 418Z" />
<glyph unicode="s" glyph-name="s" horiz-adv-x="397" d="M340 339Q340 328 333 321T316 313T300 320T293 337Q293 353 307 361Q304 366 297 371Q261 398 198 398Q145 398 114 374T82 311Q82 292 91 278T121 253T158 238T208 223Q241 215 262 208T306 187T340
153T351 105Q351 55 310 25T199 -6Q106 -6 58 47Q43 64 43 83Q43 95 50 102T67 110Q78 110 84 103T91 86Q91 68 75 63Q87 44 122 29T199 14Q261 14 294 39T328 105Q328 124 321 138T303 162T272 179T237 192T195 204Q162 212 143 219T102 238T70 268T59 311Q59
357 99 387T199 418Q283 418 323 376Q340 359 340 339Z" />
<glyph unicode="t" glyph-name="t" horiz-adv-x="282" d="M175 -6Q117 -6 99 39Q90 60 90 91V392H14V412H90V526L114 533V412H250V392H114V93Q114 65 121 50Q134 15 176 15Q209 15 250 40L246 16Q212 -6 175 -6Z" />
<glyph unicode="u" glyph-name="u" horiz-adv-x="523" d="M227 -6Q151 -6 120 50Q103 80 103 137V392H28V412H127V139Q127 90 141 62Q164 15 230 15Q313 15 393 117V392H319V412H417V20H492V0H394V93Q317 -6 227 -6Z" />
<glyph unicode="v" glyph-name="v" horiz-adv-x="477" d="M233 -17L61 392H-2V412H168V392H87L239 21L390 392H309V412H479V392H416L244 -17H233Z" />
<glyph unicode="w" glyph-name="w" horiz-adv-x="646" d="M177 -17L63 392H-2V412H167V392H87L185 31L318 361H329L462 31L560 392H479V412H648V392H583L469 -17H458L323 321L188 -17H177Z" />
<glyph unicode="x" glyph-name="x" horiz-adv-x="463" d="M16 0V20H75L218 211L84 392H24V412H178V392H111L232 225L354 392H286V412H439V392H379L247 213L389 20H447V0H288V20H362L233 199L101 20H175V0H16Z" />
<glyph unicode="y" glyph-name="y" horiz-adv-x="466" d="M174 -133Q132 -200 72 -200Q50 -200 38 -190T25 -166Q25 -156 32 -149T49 -142Q64 -142 71 -154T73 -181Q120 -181 156 -124Q174 -97 196 -46L221 13L62 392H-2V412H167V392H88L232 36L382 392H301V412H469V392H405L213
-56Q196 -97 174 -133Z" />
<glyph unicode="z" glyph-name="z" horiz-adv-x="383" d="M29 0V11L317 392H70V305H46V412H349V401L60 20H330V106H353V0H29Z" />
<glyph unicode="{" glyph-name="braceleft" horiz-adv-x="300" d="M249 -217Q168 -216 116 -174T63 -75Q63 -25 130 52Q190 120 190 159T159 225T79 253H47V276H79Q127 276 158 303T190 370T130 476Q63 553 63 604Q63 659 115 701T249 745V725Q174 722 131 686T88
604Q88 560 152 488Q215 417 215 370Q215 331 185 301T106 264Q155 258 185 228T215 159Q215 110 152 41Q88 -33 88 -75Q88 -122 131 -157T249 -197V-217Z" />
<glyph unicode="|" glyph-name="bar" horiz-adv-x="237" d="M106 -200V732H130V-200H106Z" />
<glyph unicode="}" glyph-name="braceright" horiz-adv-x="300" d="M51 -217V-197Q126 -193 168 -158T211 -75Q211 -32 148 41Q84 111 84 159Q84 198 114 228T193 264Q144 271 114 301T84 370Q84 416 148 488Q211 559 211 604Q211 650 168 686T51 725V745Q132
744 184 702T237 604Q237 552 169 476Q110 411 110 370Q110 330 141 303T221 276H252V253H221Q172 253 141 226T110 159Q110 119 169 52Q237 -24 237 -75Q237 -131 185 -173T51 -217Z" />
<glyph unicode="~" glyph-name="asciitilde" horiz-adv-x="397" d="M269 209Q236 209 192 243Q153 273 128 273Q107 273 94 259T71 213L53 217Q71 299 129 299Q161 299 206 265Q243 235 269 235Q290 235 303 248T326 294L343 290Q336 254 317 232T269 209Z" />
</font>
</defs>
</svg>
